<mxfile host="app.diagrams.net" modified="2024-02-22T20:53:30.816Z" agent="Mozilla/5.0 (Windows NT 10.0; Win64; x64; rv:124.0) Gecko/20100101 Firefox/124.0" etag="N01Rj1eAjxwYcieKuHhh" version="23.1.6" type="device">
  <diagram name="P치gina-1" id="jGLNLjtmGSDzbC26IgF6">
    <mxGraphModel dx="1434" dy="1989" grid="1" gridSize="10" guides="1" tooltips="1" connect="1" arrows="1" fold="1" page="1" pageScale="1" pageWidth="827" pageHeight="1169" math="0" shadow="0">
      <root>
        <mxCell id="0" />
        <mxCell id="1" parent="0" />
        <mxCell id="jqiBhp-ZgphjeBJTnRqZ-1" value="" style="ellipse;whiteSpace=wrap;html=1;aspect=fixed;" parent="1" vertex="1">
          <mxGeometry x="160" y="200" width="80" height="80" as="geometry" />
        </mxCell>
        <mxCell id="jqiBhp-ZgphjeBJTnRqZ-2" value="1" style="text;html=1;align=center;verticalAlign=middle;whiteSpace=wrap;rounded=0;" parent="1" vertex="1">
          <mxGeometry x="170" y="225" width="60" height="30" as="geometry" />
        </mxCell>
        <mxCell id="jqiBhp-ZgphjeBJTnRqZ-3" value="&lt;font style=&quot;font-size: 18px;&quot;&gt;C칩digo:&lt;br&gt;&lt;br&gt;1 if (a &amp;gt; 1 or b &amp;gt; 5 or c &amp;lt; 2) then&lt;br&gt;2 x = x + 1&lt;br&gt;3 else&lt;br&gt;4 x = x - 1&lt;br&gt;5 end&lt;br&gt;&lt;br&gt;&lt;/font&gt;&lt;div&gt;&lt;br/&gt;&lt;/div&gt;" style="text;html=1;spacing=5;spacingTop=-20;whiteSpace=wrap;overflow=hidden;rounded=0;" parent="1" vertex="1">
          <mxGeometry width="280" height="160" as="geometry" />
        </mxCell>
        <mxCell id="jqiBhp-ZgphjeBJTnRqZ-4" value="" style="ellipse;whiteSpace=wrap;html=1;aspect=fixed;" parent="1" vertex="1">
          <mxGeometry x="280" y="320" width="80" height="80" as="geometry" />
        </mxCell>
        <mxCell id="jqiBhp-ZgphjeBJTnRqZ-5" value="" style="ellipse;whiteSpace=wrap;html=1;aspect=fixed;" parent="1" vertex="1">
          <mxGeometry x="40" y="320" width="80" height="80" as="geometry" />
        </mxCell>
        <mxCell id="jqiBhp-ZgphjeBJTnRqZ-6" value="" style="ellipse;whiteSpace=wrap;html=1;aspect=fixed;" parent="1" vertex="1">
          <mxGeometry x="60" y="570" width="80" height="80" as="geometry" />
        </mxCell>
        <mxCell id="jqiBhp-ZgphjeBJTnRqZ-7" value="1" style="text;html=1;align=center;verticalAlign=middle;whiteSpace=wrap;rounded=0;" parent="1" vertex="1">
          <mxGeometry x="290" y="345" width="60" height="30" as="geometry" />
        </mxCell>
        <mxCell id="jqiBhp-ZgphjeBJTnRqZ-8" value="3" style="text;html=1;align=center;verticalAlign=middle;whiteSpace=wrap;rounded=0;" parent="1" vertex="1">
          <mxGeometry x="50" y="345" width="60" height="30" as="geometry" />
        </mxCell>
        <mxCell id="jqiBhp-ZgphjeBJTnRqZ-9" value="4" style="text;html=1;align=center;verticalAlign=middle;whiteSpace=wrap;rounded=0;" parent="1" vertex="1">
          <mxGeometry x="70" y="595" width="60" height="30" as="geometry" />
        </mxCell>
        <mxCell id="jqiBhp-ZgphjeBJTnRqZ-10" value="" style="endArrow=classic;html=1;rounded=0;exitX=1;exitY=1;exitDx=0;exitDy=0;entryX=0;entryY=0;entryDx=0;entryDy=0;" parent="1" source="jqiBhp-ZgphjeBJTnRqZ-1" target="jqiBhp-ZgphjeBJTnRqZ-4" edge="1">
          <mxGeometry width="50" height="50" relative="1" as="geometry">
            <mxPoint x="390" y="430" as="sourcePoint" />
            <mxPoint x="440" y="380" as="targetPoint" />
          </mxGeometry>
        </mxCell>
        <mxCell id="jqiBhp-ZgphjeBJTnRqZ-11" value="" style="endArrow=classic;html=1;rounded=0;exitX=0;exitY=1;exitDx=0;exitDy=0;entryX=1;entryY=0;entryDx=0;entryDy=0;" parent="1" source="jqiBhp-ZgphjeBJTnRqZ-1" target="jqiBhp-ZgphjeBJTnRqZ-5" edge="1">
          <mxGeometry width="50" height="50" relative="1" as="geometry">
            <mxPoint x="390" y="430" as="sourcePoint" />
            <mxPoint x="440" y="380" as="targetPoint" />
          </mxGeometry>
        </mxCell>
        <mxCell id="jqiBhp-ZgphjeBJTnRqZ-12" value="" style="endArrow=classic;html=1;rounded=0;entryX=1;entryY=0.5;entryDx=0;entryDy=0;exitX=0;exitY=1;exitDx=0;exitDy=0;" parent="1" source="jqiBhp-ZgphjeBJTnRqZ-4" target="jqiBhp-ZgphjeBJTnRqZ-5" edge="1">
          <mxGeometry width="50" height="50" relative="1" as="geometry">
            <mxPoint x="390" y="430" as="sourcePoint" />
            <mxPoint x="440" y="380" as="targetPoint" />
          </mxGeometry>
        </mxCell>
        <mxCell id="jqiBhp-ZgphjeBJTnRqZ-13" value="" style="endArrow=classic;html=1;rounded=0;entryX=0;entryY=0;entryDx=0;entryDy=0;" parent="1" source="jqiBhp-ZgphjeBJTnRqZ-5" target="jqiBhp-ZgphjeBJTnRqZ-6" edge="1">
          <mxGeometry width="50" height="50" relative="1" as="geometry">
            <mxPoint x="390" y="430" as="sourcePoint" />
            <mxPoint x="440" y="380" as="targetPoint" />
          </mxGeometry>
        </mxCell>
        <mxCell id="jqiBhp-ZgphjeBJTnRqZ-14" value="&lt;font style=&quot;font-size: 18px;&quot;&gt;Complejidad Ciclom치tica:&lt;br&gt;&lt;br&gt;V(G) = A - N + 2 = 2 Hay 4 Aristas y 4 Nodos.&lt;br&gt;&lt;br&gt;칩&lt;br&gt;&lt;br&gt;V(G) = nps + 1 = 2 Hay un Nodo con 2 Aristas.&lt;br&gt;&lt;br&gt;Programa Simple sin Mucho Riesgo.&lt;br&gt;&lt;/font&gt;" style="text;html=1;spacing=5;spacingTop=-20;whiteSpace=wrap;overflow=hidden;rounded=0;" parent="1" vertex="1">
          <mxGeometry x="360" y="40" width="400" height="200" as="geometry" />
        </mxCell>
        <mxCell id="jqiBhp-ZgphjeBJTnRqZ-15" value="TRUE a&amp;gt;1" style="text;html=1;align=center;verticalAlign=middle;whiteSpace=wrap;rounded=0;" parent="1" vertex="1">
          <mxGeometry x="260" y="270" width="150" height="30" as="geometry" />
        </mxCell>
        <mxCell id="jqiBhp-ZgphjeBJTnRqZ-16" value="FALSE" style="text;html=1;align=center;verticalAlign=middle;whiteSpace=wrap;rounded=0;" parent="1" vertex="1">
          <mxGeometry x="70" y="270" width="60" height="30" as="geometry" />
        </mxCell>
        <mxCell id="jqiBhp-ZgphjeBJTnRqZ-17" value="" style="ellipse;whiteSpace=wrap;html=1;aspect=fixed;" parent="1" vertex="1">
          <mxGeometry x="400" y="440" width="80" height="80" as="geometry" />
        </mxCell>
        <mxCell id="jqiBhp-ZgphjeBJTnRqZ-18" value="" style="endArrow=classic;html=1;rounded=0;exitX=1;exitY=1;exitDx=0;exitDy=0;entryX=0;entryY=0;entryDx=0;entryDy=0;" parent="1" source="jqiBhp-ZgphjeBJTnRqZ-4" target="jqiBhp-ZgphjeBJTnRqZ-17" edge="1">
          <mxGeometry width="50" height="50" relative="1" as="geometry">
            <mxPoint x="390" y="400" as="sourcePoint" />
            <mxPoint x="440" y="350" as="targetPoint" />
          </mxGeometry>
        </mxCell>
        <mxCell id="jqiBhp-ZgphjeBJTnRqZ-19" value="TRUE b&amp;gt;5" style="text;html=1;align=center;verticalAlign=middle;whiteSpace=wrap;rounded=0;" parent="1" vertex="1">
          <mxGeometry x="390" y="400" width="60" height="30" as="geometry" />
        </mxCell>
        <mxCell id="jqiBhp-ZgphjeBJTnRqZ-20" value="" style="endArrow=classic;html=1;rounded=0;entryX=1;entryY=1;entryDx=0;entryDy=0;exitX=0;exitY=0.5;exitDx=0;exitDy=0;" parent="1" source="jqiBhp-ZgphjeBJTnRqZ-17" target="jqiBhp-ZgphjeBJTnRqZ-5" edge="1">
          <mxGeometry width="50" height="50" relative="1" as="geometry">
            <mxPoint x="390" y="490" as="sourcePoint" />
            <mxPoint x="440" y="350" as="targetPoint" />
          </mxGeometry>
        </mxCell>
        <mxCell id="jqiBhp-ZgphjeBJTnRqZ-21" value="1" style="text;html=1;align=center;verticalAlign=middle;whiteSpace=wrap;rounded=0;" parent="1" vertex="1">
          <mxGeometry x="410" y="465" width="60" height="30" as="geometry" />
        </mxCell>
        <mxCell id="jqiBhp-ZgphjeBJTnRqZ-22" value="" style="endArrow=classic;html=1;rounded=0;entryX=1;entryY=0.5;entryDx=0;entryDy=0;exitX=0;exitY=1;exitDx=0;exitDy=0;" parent="1" source="jqiBhp-ZgphjeBJTnRqZ-17" target="jqiBhp-ZgphjeBJTnRqZ-6" edge="1">
          <mxGeometry width="50" height="50" relative="1" as="geometry">
            <mxPoint x="390" y="400" as="sourcePoint" />
            <mxPoint x="440" y="350" as="targetPoint" />
          </mxGeometry>
        </mxCell>
        <mxCell id="jqiBhp-ZgphjeBJTnRqZ-23" value="TRUE c&amp;lt;2" style="text;html=1;align=center;verticalAlign=middle;whiteSpace=wrap;rounded=0;" parent="1" vertex="1">
          <mxGeometry x="310" y="550" width="60" height="30" as="geometry" />
        </mxCell>
      </root>
    </mxGraphModel>
  </diagram>
</mxfile>
